<svg width="35" height="35" viewBox="0 0 35 35" fill="none" xmlns="http://www.w3.org/2000/svg">
<path d="M17.4927 3.15182C22.163 3.15182 22.7145 3.16732 24.5629 3.25208C26.2655 3.32865 27.1934 3.61211 27.8141 3.85729C28.6271 4.17174 29.2104 4.55547 29.8238 5.16888C30.4372 5.78229 30.8128 6.36563 31.1354 7.17773C31.3724 7.79115 31.6568 8.71992 31.7406 10.4298C31.8254 12.2773 31.8409 12.8297 31.8409 17.5C31.8409 22.1703 31.8254 22.7227 31.7406 24.5711C31.6641 26.2728 31.3806 27.2007 31.1354 27.8223C30.821 28.6353 30.4372 29.2177 29.8238 29.8311C29.2104 30.4445 28.6271 30.821 27.8141 31.1427C27.2007 31.3806 26.2728 31.6641 24.5629 31.7488C22.7145 31.8327 22.163 31.8482 17.4927 31.8482C12.8224 31.8482 12.2701 31.8327 10.4216 31.7488C8.71901 31.6723 7.79115 31.3879 7.17044 31.1427C6.35742 30.8283 5.77409 30.4445 5.16068 29.8311C4.54727 29.2177 4.17174 28.6353 3.85 27.8223C3.61211 27.2089 3.32865 26.281 3.24388 24.5711C3.15911 22.7227 3.14453 22.1703 3.14453 17.5C3.14453 12.8297 3.15911 12.2773 3.24388 10.4298C3.32044 8.72721 3.60391 7.79935 3.85 7.17773C4.16445 6.36563 4.54727 5.78229 5.16068 5.16888C5.77409 4.55547 6.35742 4.17995 7.17044 3.85729C7.78385 3.6194 8.71172 3.33594 10.4216 3.25208C12.2701 3.16732 12.8224 3.15182 17.4927 3.15182ZM17.4927 0C12.7376 0 12.147 0.0227865 10.2758 0.107552C8.41276 0.192318 7.13945 0.491276 6.02747 0.920573C4.87721 1.36536 3.90378 1.96328 2.92943 2.93763C1.96328 3.91107 1.36536 4.88542 0.920573 6.03568C0.490365 7.14766 0.191406 8.42005 0.107552 10.284C0.0227863 12.147 0 12.7458 0 17.4927C0 22.2469 0.0227863 22.8375 0.107552 24.7087C0.191406 26.5727 0.490365 27.8451 0.920573 28.957C1.36536 30.1073 1.96328 31.0816 2.93672 32.0551C3.91107 33.0294 4.88542 33.6273 6.03568 34.0721C7.14766 34.5014 8.42005 34.8004 10.284 34.8852C12.147 34.9699 12.7458 34.9927 17.5 34.9927C22.2542 34.9927 22.8448 34.9699 24.716 34.8852C26.5799 34.8004 27.8523 34.5014 28.9643 34.0721C30.1146 33.6273 31.0889 33.0294 32.0633 32.0551C33.0367 31.0816 33.6346 30.1073 34.0794 28.957C34.5096 27.8451 34.8086 26.5727 34.8924 24.7087C34.9772 22.8457 35 22.2469 35 17.4927C35 12.7376 34.9772 12.147 34.8924 10.2767C34.8086 8.41276 34.5096 7.13945 34.0794 6.02747C33.6346 4.87721 33.0367 3.90378 32.0633 2.92943C31.0889 1.95599 30.1146 1.35716 28.9643 0.91237C27.8523 0.483073 26.5799 0.184115 24.716 0.10026C22.8448 0.0227865 22.2469 0 17.4927 0Z" fill="#C0C0C0"/>
<path d="M17.4927 8.51196C12.5307 8.51196 8.51211 12.5306 8.51211 17.4926C8.51211 22.4536 12.538 26.4805 17.5 26.4805C22.462 26.4805 26.4879 22.4618 26.4879 17.4926C26.4797 12.5306 22.4538 8.51196 17.4927 8.51196ZM17.4927 23.3286C14.2716 23.3286 11.6639 20.7209 11.6639 17.4999C11.6639 14.2788 14.2716 11.672 17.4927 11.672C20.7129 11.672 23.3206 14.2788 23.3206 17.4999C23.3279 20.7137 20.7129 23.3286 17.4927 23.3286Z" fill="#C0C0C0"/>
<path d="M28.9342 8.15951C28.9342 9.31797 27.9909 10.2613 26.8324 10.2613C25.6749 10.2613 24.7315 9.31797 24.7315 8.15951C24.7315 7.00195 25.6749 6.05859 26.8324 6.05859C27.9909 6.05859 28.9342 6.99375 28.9342 8.15951Z" fill="#C0C0C0"/>
</svg>
