<svg width="38" height="31" viewBox="0 0 38 31" fill="none" xmlns="http://www.w3.org/2000/svg">
<path d="M33.9914 7.65305C34.0143 7.98686 34.0143 8.32067 34.0143 8.65665C34.0143 18.9127 26.1989 30.7409 11.9088 30.7409V30.7349C7.68742 30.742 3.55374 29.5342 0 27.2558C0.613709 27.3293 1.23068 27.3663 1.84929 27.368C5.34803 27.3707 8.74603 26.1983 11.4982 24.0386C8.17371 23.976 5.25818 21.8103 4.23987 18.6481C5.40467 18.873 6.60431 18.8267 7.74733 18.5141C4.12225 17.7828 1.51494 14.601 1.51494 10.9062C1.51494 10.8719 1.51494 10.8403 1.51494 10.8076C2.59478 11.4083 3.80423 11.7421 5.04091 11.7791C1.62766 9.50071 0.57559 4.96405 2.63726 1.4163C6.58144 6.26553 12.4011 9.21318 18.6487 9.52521C18.0225 6.82914 18.8785 4.00456 20.8966 2.10897C24.0261 -0.829423 28.9478 -0.679127 31.8894 2.44605C33.6287 2.10298 35.2967 1.46531 36.8225 0.561904C36.2426 2.35892 35.0293 3.8853 33.4077 4.8546C34.9476 4.67272 36.4522 4.26104 37.8692 3.63208C36.8258 5.19385 35.5118 6.55469 33.9914 7.65305Z" fill="#C0C0C0"/>
</svg>
