<svg width="33" height="33" viewBox="0 0 33 33" fill="none" xmlns="http://www.w3.org/2000/svg">
<path d="M29.9152 0H2.71396C1.20975 0 0 1.22596 0 2.71342V29.9644C0 31.468 1.2265 32.6778 2.71396 32.6778H29.899C31.4027 32.6778 32.6124 31.4518 32.6124 29.9644V2.71342C32.6292 1.22596 31.4194 0 29.9152 0ZM9.66124 26.9565H4.83899V12.473H9.66124V26.9565ZM7.24174 10.7235C5.72186 10.7235 4.4959 9.49752 4.4959 7.9771C4.4959 6.45721 5.72186 5.23072 7.24174 5.23072C8.76217 5.23072 9.98812 6.45721 9.98812 7.9771C9.98812 9.49752 8.76217 10.7235 7.24174 10.7235ZM27.8064 26.9565H22.9679L22.8534 18.3575C22.8534 18.3575 22.9679 16.0693 20.4668 16.0855C17.9658 16.1017 17.6221 18.3575 17.6221 18.3575V26.9565H12.7507V12.473H17.426V14.4673C17.426 14.4673 17.6221 13.813 18.7011 13.0446C19.7801 12.2763 21.562 12.1131 22.3304 12.1456C23.0987 12.1785 24.1447 12.0478 25.8937 13.2575C27.774 14.5489 27.8231 17.9328 27.8231 17.9328L27.8064 26.9565Z" fill="#C0C0C0"/>
</svg>
