<svg xmlns="http://www.w3.org/2000/svg" xmlns:xlink="http://www.w3.org/1999/xlink" width="500" zoomAndPan="magnify"
    viewBox="0 0 375 374.999991" height="500" preserveAspectRatio="xMidYMid meet" version="1.0">
    <defs>
        <clipPath id="0c0cfe2f55">
            <path d="M 89 110.554688 L 286.96875 110.554688 L 286.96875 264 L 89 264 Z M 89 110.554688 "
                clip-rule="nonzero" />
        </clipPath>
    </defs>
    <g clip-path="url(#0c0cfe2f55)">
        <path fill="#2870d9"
            d="M 162.421875 145.703125 C 162.730469 145.570312 162.820312 143.324219 162.90625 142.972656 C 162.953125 142.617188 163.128906 140.371094 163.4375 140.242188 C 168.246094 137.863281 173.144531 135.75 178.171875 133.898438 C 197.542969 126.808594 219.25 123.679688 239.367188 129.40625 C 255.914062 134.117188 271.222656 144.734375 279.871094 159.75 C 284.460938 167.679688 286.84375 176.707031 286.886719 185.824219 C 286.929688 190.226562 286.3125 194.542969 285.5625 198.816406 C 284.769531 203.265625 283.839844 207.625 282.339844 211.898438 C 275.945312 230.085938 261.824219 244.089844 244.707031 252.546875 C 225.691406 261.929688 204.160156 264.304688 183.203125 262.632812 C 172.039062 261.707031 160.921875 259.769531 150.070312 257.082031 C 141.6875 255.058594 133.433594 252.414062 125.582031 248.847656 C 110.359375 241.933594 96.199219 230.746094 91.210938 214.1875 C 88.257812 204.410156 89.226562 194.632812 91.167969 184.8125 C 93.066406 175.253906 97.167969 166.402344 102.902344 158.5625 C 114.640625 142.617188 132.113281 130.949219 150.070312 123.019531 C 169.039062 114.652344 189.820312 110.554688 210.558594 110.996094 C 210.292969 110.996094 209.894531 116.503906 209.542969 116.503906 C 204.644531 116.371094 199.703125 116.503906 194.808594 116.898438 C 175.21875 118.484375 155.980469 124.210938 138.730469 133.546875 C 122.183594 142.53125 106.34375 154.949219 97.035156 171.597656 C 94.699219 175.828125 92.800781 180.273438 91.476562 184.898438 C 91.210938 185.867188 90.992188 186.882812 90.726562 187.894531 C 90.152344 190.050781 90.992188 185.78125 90.816406 187.277344 C 90.683594 188.597656 90.460938 189.917969 90.375 191.242188 C 90.199219 193.53125 90.199219 195.867188 90.375 198.15625 C 90.949219 207.007812 94.035156 215.464844 99.332031 222.597656 C 109.035156 235.722656 124.566406 243.386719 139.746094 248.320312 C 148.699219 251.226562 157.964844 253.253906 167.230469 254.882812 C 178.261719 256.773438 189.46875 257.875 200.675781 257.523438 C 219.777344 256.996094 238.972656 252.238281 255.074219 241.667969 C 262.753906 236.605469 269.589844 230.261719 274.929688 222.773438 C 277.578125 218.988281 279.871094 214.980469 281.679688 210.75 C 282.605469 208.59375 283.445312 206.390625 284.152344 204.144531 C 284.503906 203.042969 284.8125 201.941406 285.078125 200.84375 C 285.210938 200.269531 285.339844 199.695312 285.472656 199.125 C 285.960938 197.097656 285.210938 201.328125 285.429688 199.257812 C 286.355469 190.226562 285.828125 181.417969 282.5625 172.832031 C 279.648438 165.167969 274.929688 158.253906 269.105469 152.527344 C 256.621094 140.152344 239.632812 133.238281 222.160156 132.050781 C 201.46875 130.683594 180.863281 136.628906 162.421875 145.703125 Z M 162.421875 145.703125 "
            fill-opacity="1" fill-rule="nonzero" />
    </g>
</svg>